# xmcd
#
# Track frame offsets: 
#        150
#        9402
#        19800
#        29585
#        38945
#        49132
#        58507
#        69222
#        80485
#        90879
#        100682
#        112310
#        124007
#        135520
#        145535
#        156310
#        167802
#        178682
#        192225
#        204022
#        215187
#        227472
#        237332
#        246097
#        257597
#        269642
#        282570
#        294432
#        304072
#
# Disc length: 4151 seconds
#
# Revision: 0
# Processed by: cddbd v1.5.1PL0 Copyright (c) Steve Scherf et al.
# Submitted via: ExactAudioCopy v0.95a4
#
DISCID=9b10351d
DTITLE=Various Artist - The 'D' Singles Volume 3 - Disc 1
DYEAR=1900
DGENRE=Country
TTITLE0=Ray Pressley: Breaking Of A Heart
TTITLE1=Ray Pressley: Rose Colored Glasses
TTITLE2=Hardrock Gunter and The Pop Corn Poppers: Traveling
TTITLE3=Hardrock Gunter and The Pop Corn Poppers: Jumping Mule
TTITLE4=Joe Barber: How Can I Forget You
TTITLE5=Joe Barber: Some Day You'll Need Me
TTITLE6=Jimmie Hughes: Cheating Words
TTITLE7=Jimmie Hughes: Something To Remember You By
TTITLE8=Johnny Helms: Yoshe'
TTITLE9=Johnny Helms: Memories For A Pillow
TTITLE10=Bobby Russell and Sadie: Not Even Friends
TTITLE11=Sadie and Bobbie Russell: Shackled
TTITLE12=Bobby Russell and Sadie: Not Even Friends (undubbed)
TTITLE13=Ward Allen: Pappy Daily's Breakdown
TTITLE14=Ward Allen: Bread 'n' Butter
TTITLE15=Ernie Kucera: Haps Waltz
TTITLE16=Ernie Kucera: Begging You Polka
TTITLE17=Claude Gray - Family Bible
TTITLE18=Claude Gray - Crying In The Night
TTITLE19=Country Johnny Mathis: The Chances Are
TTITLE20=Country Johnny Mathis: Come On In
TTITLE21=Lawton Williams: I Don't Care Who Knows
TTITLE22=Lawton Williams: Satan's Bell
TTITLE23=Tony Douglas: Thunder And Lightning
TTITLE24=Tony Douglas: The World Keeps Turning
TTITLE25=Johnny Webb: Blue Yesterday
TTITLE26=Johnny Webb: Broken Dreams
TTITLE27=Charles Drake: Wheel Of Love
TTITLE28=Charles Drake: Lost Out Love Affair
EXTD=
EXTT0=
EXTT1=
EXTT2=
EXTT3=
EXTT4=
EXTT5=
EXTT6=
EXTT7=
EXTT8=
EXTT9=
EXTT10=
EXTT11=
EXTT12=
EXTT13=
EXTT14=
EXTT15=
EXTT16=
EXTT17=
EXTT18=
EXTT19=
EXTT20=
EXTT21=
EXTT22=
EXTT23=
EXTT24=
EXTT25=
EXTT26=
EXTT27=
EXTT28=
PLAYORDER=
